<svg width="4544" height="683" viewBox="0 0 4544 683" fill="none" xmlns="http://www.w3.org/2000/svg">
<path d="M50.1323 157.622C48.7211 158.615 47.2267 159.484 45.6659 160.22C21.2009 168.879 5.66861 185.598 3.33543 211.575C2.12596 222.292 4.19942 233.123 9.28179 242.637C14.3642 252.152 22.2162 259.901 31.8002 264.862C100.796 303.694 170.058 341.928 239.386 380.161C251.42 387.29 265.686 389.666 279.384 386.822C291.586 384.692 302.808 378.779 311.458 369.92C320.109 361.061 325.75 349.706 327.58 337.465C331.114 315.018 318.648 292.371 295.583 279.249L183.523 216.104C220.654 195.189 257.852 174.408 294.849 153.293C326.447 135.242 336.913 103.003 320.914 74.4284C312.857 60.6696 299.715 50.6221 284.317 46.4488C268.92 42.2755 252.498 44.3101 238.586 52.1146C226.254 58.7755 214.188 65.4363 202.055 72.0972L50.1323 157.622ZM669.291 272.122C694.156 262.264 710.955 245.479 711.955 217.57C712.955 189.661 697.156 173.741 674.024 161.153C614.028 128.714 554.965 95.1437 495.436 62.1059C486.707 56.8355 477.618 52.1836 468.238 48.1847C454.316 42.6953 438.843 42.6035 424.857 47.9273C410.87 53.2511 399.381 63.606 392.643 76.9595C379.31 104.802 389.443 134.975 417.974 151.827C423.907 155.358 430.04 158.488 436.106 162.085L531.3 216.104L420.041 278.783C389.31 296.034 377.977 328.006 393.109 355.982C396.841 363.063 401.953 369.325 408.145 374.4C414.336 379.476 421.482 383.261 429.161 385.533C436.84 387.805 444.897 388.518 452.856 387.629C460.815 386.741 468.516 384.27 475.504 380.361C487.903 374.099 499.969 367.039 512.101 360.378L669.291 272.122Z" fill="white"/>
<path d="M527.084 214.883L431.908 160.933C425.851 157.474 419.728 154.281 413.804 150.689C385.318 133.858 375.202 103.724 388.513 75.9171C395.24 62.5808 406.712 52.2392 420.676 46.9223C434.64 41.6053 450.088 41.697 463.988 47.1793C473.354 51.1731 482.428 55.819 491.143 61.0826C550.579 94.3439 609.748 127.605 669.449 160.002C692.544 172.575 708.252 189.272 707.32 216.346C706.388 243.421 689.549 260.983 664.724 270.828C646.05 274.697 626.603 271.039 610.613 260.651C583.125 245.018 555.105 230.117 527.084 214.883Z" fill="#09A150"/>
<path d="M180.028 214.888L292.104 278.409C315.131 291.712 327.576 314.127 324.049 336.543C322.221 348.767 316.59 360.105 307.954 368.952C299.317 377.798 288.114 383.703 275.931 385.83C262.256 388.67 248.013 386.297 235.999 379.178C166.784 340.999 97.6358 302.82 28.7535 264.042C19.1852 259.089 11.346 251.35 6.27199 241.849C1.19794 232.349 -0.872122 221.533 0.335372 210.831C2.66473 184.89 18.1716 168.195 42.5965 159.548C44.1548 158.814 45.6466 157.946 47.0556 156.954C66.9088 156.446 86.4563 161.915 103.16 172.652C128.25 187.019 154.539 200.521 180.028 214.888Z" fill="#4285F4"/>
<path d="M527.266 215C555.156 230.253 583.179 245.174 610.802 260.827C626.794 271.229 646.242 274.891 664.918 271.018L508.096 359.408C495.982 366.069 483.934 373.129 471.553 379.391C464.568 383.295 456.871 385.759 448.919 386.638C440.966 387.517 432.917 386.792 425.249 384.507C417.58 382.223 410.447 378.424 404.27 373.335C398.092 368.246 392.996 361.971 389.282 354.879C374.372 326.77 385.488 294.931 416.307 277.546L527.266 215Z" fill="#FBBA17"/>
<path d="M180.08 215C154.325 200.972 128.303 187.476 103.013 172.65C86.3095 161.919 66.7622 156.452 46.9092 156.96L198.582 71.462C210.694 64.8137 222.74 57.7664 235.053 51.5169C248.941 43.727 265.336 41.6963 280.708 45.8617C296.08 50.0272 309.201 60.0559 317.245 73.7889C333.217 102.31 322.768 134.488 291.223 152.506C254.419 173.049 217.15 193.792 180.08 215Z" fill="#E73A32"/>
<path d="M864.759 83.0173L936.034 83.8349C960.233 84.1124 981.293 89.4143 999.216 99.7406C1017.14 109.847 1030.84 123.865 1040.32 141.795C1049.79 159.725 1054.4 180.239 1054.13 203.337C1053.87 226.436 1048.79 246.839 1038.91 264.547C1029.02 282.254 1015.01 296.065 996.851 305.977C978.698 315.669 957.523 320.377 933.324 320.099L862.049 319.282L864.759 83.0173ZM933.631 293.371C961.569 293.692 983.77 285.916 1000.23 270.043C1016.92 254.174 1025.42 231.83 1025.75 203.012C1026.08 174.194 1018.09 151.66 1001.78 135.412C985.682 119.167 963.666 110.884 935.728 110.563L892.171 110.063L890.074 292.871L933.631 293.371ZM1158.47 327.962C1142.41 327.778 1128.04 323.763 1115.37 315.917C1102.7 308.071 1092.81 297.397 1085.71 283.895C1078.82 270.175 1075.48 254.845 1075.67 237.907C1075.86 221.628 1079.33 206.706 1086.09 193.143C1093.06 179.582 1102.76 168.803 1115.17 160.804C1127.58 152.806 1141.93 148.901 1158.21 149.087C1174.71 149.277 1188.96 153.18 1200.98 160.799C1212.99 168.197 1222.12 178.422 1228.35 191.475C1234.8 204.529 1237.93 219.416 1237.73 236.135C1237.7 239.435 1237.33 242.291 1236.65 244.703L1103.67 243.178C1104.18 255.945 1107.13 266.759 1112.53 275.622C1117.93 284.484 1124.79 291.163 1133.1 295.659C1141.62 300.157 1150.51 302.459 1159.75 302.565C1181.31 302.812 1198.03 292.884 1209.92 272.779L1233.55 284.6C1226.13 298.156 1216.11 308.822 1203.48 316.598C1191.07 324.376 1176.07 328.164 1158.47 327.962ZM1208.2 221.275C1207.84 214.231 1205.94 207.169 1202.51 200.089C1199.07 193.009 1193.53 187.005 1185.88 182.077C1178.46 177.151 1169.03 174.623 1157.59 174.492C1144.39 174.34 1133.12 178.501 1123.78 186.975C1114.67 195.231 1108.6 206.272 1105.58 220.098L1208.2 221.275ZM1249.79 155.418L1279.81 155.762L1330.4 291.652L1331.06 291.659L1385.41 156.974L1414.78 157.31L1344.21 324.812L1315.83 324.487L1249.79 155.418ZM1505.85 331.946C1489.79 331.762 1475.42 327.747 1462.75 319.901C1450.08 312.056 1440.19 301.381 1433.09 287.879C1426.2 274.159 1422.86 258.83 1423.05 241.891C1423.24 225.612 1426.71 210.691 1433.47 197.127C1440.44 183.567 1450.14 172.787 1462.55 164.789C1474.96 156.791 1489.31 152.885 1505.59 153.072C1522.09 153.261 1536.34 157.165 1548.36 164.783C1560.37 172.181 1569.5 182.407 1575.73 195.459C1582.18 208.514 1585.31 223.401 1585.11 240.12C1585.08 243.419 1584.71 246.275 1584.03 248.688L1451.04 247.162C1451.56 259.929 1454.51 270.744 1459.91 279.606C1465.31 288.469 1472.17 295.148 1480.47 299.643C1489 304.141 1497.89 306.443 1507.13 306.549C1528.69 306.797 1545.41 296.868 1557.3 276.763L1580.93 288.585C1573.51 302.141 1563.49 312.806 1550.86 320.582C1538.45 328.36 1523.44 332.148 1505.85 331.946ZM1555.58 225.26C1555.22 218.215 1553.32 211.153 1549.89 204.073C1546.45 196.993 1540.9 190.989 1533.26 186.061C1525.84 181.136 1516.41 178.607 1504.97 178.476C1491.77 178.325 1480.5 182.486 1471.16 190.959C1462.05 199.215 1455.98 210.257 1452.96 224.083L1555.58 225.26ZM1619.65 91.6758L1647.69 91.9975L1644.98 328.262L1616.94 327.94L1619.65 91.6758ZM1762.41 334.889C1745.92 334.7 1731.11 330.57 1718 322.499C1704.9 314.428 1694.68 303.53 1687.36 289.805C1680.25 276.083 1676.8 260.972 1676.99 244.474C1677.17 227.975 1680.98 212.947 1688.39 199.391C1696.03 185.838 1706.49 175.177 1719.78 167.409C1733.07 159.641 1747.97 155.852 1764.47 156.041C1780.96 156.23 1795.77 160.36 1808.88 168.431C1821.98 176.502 1832.09 187.399 1839.19 201.121C1846.52 214.846 1850.08 229.958 1849.89 246.457C1849.71 262.956 1845.79 277.982 1838.16 291.535C1830.74 305.091 1820.39 315.753 1807.1 323.521C1793.81 331.289 1778.91 335.079 1762.41 334.889ZM1762.71 309.481C1773.05 309.6 1782.64 307.179 1791.5 302.221C1800.58 297.045 1807.82 289.647 1813.21 280.028C1818.82 270.412 1821.7 259.114 1821.85 246.135C1822 233.156 1819.38 221.795 1813.99 212.053C1808.82 202.313 1801.75 194.861 1792.79 189.698C1784.05 184.318 1774.51 181.568 1764.17 181.449C1753.83 181.331 1744.13 183.86 1735.05 189.036C1725.97 193.992 1718.62 201.278 1713.01 210.895C1707.62 220.513 1704.85 231.812 1704.7 244.791C1704.56 257.771 1707.06 269.13 1712.23 278.87C1717.62 288.612 1724.8 296.175 1733.75 301.558C1742.72 306.721 1752.37 309.362 1762.71 309.481ZM1880.5 162.652L1907.23 162.959L1906.94 188.037L1908.26 188.052C1913.42 179.531 1921.09 172.468 1931.27 166.865C1941.68 161.044 1953.26 158.207 1966.02 158.353C1980.98 158.524 1994.58 162.531 2006.81 170.371C2019.04 178.212 2028.6 188.993 2035.48 202.712C2042.36 216.432 2045.71 231.762 2045.51 248.7C2045.32 265.859 2041.62 281.218 2034.42 294.776C2027.23 308.115 2017.43 318.563 2005.02 326.121C1992.61 333.679 1978.93 337.373 1963.97 337.201C1951.21 337.055 1939.7 334.062 1929.42 328.224C1919.37 322.169 1911.86 314.932 1906.9 306.515L1905.58 306.499L1906.64 329.613L1905.8 402.538L1877.75 402.217L1880.5 162.652ZM1960.96 311.755C1970.64 311.866 1979.8 309.331 1988.44 304.15C1997.08 298.968 2003.99 291.567 2009.16 281.946C2014.55 272.107 2017.32 260.918 2017.46 248.379C2017.61 235.84 2015.1 224.7 2009.93 214.96C2004.98 205.003 1998.25 197.335 1989.73 191.957C1981.21 186.579 1972.11 183.834 1962.43 183.723C1952.75 183.612 1943.59 186.147 1934.95 191.329C1926.31 196.51 1919.41 203.911 1914.24 213.533C1909.07 223.154 1906.41 234.344 1906.26 247.103C1906.11 259.862 1908.52 271.111 1913.46 280.848C1918.41 290.586 1925.15 298.143 1933.67 303.521C1942.18 308.899 1951.28 311.644 1960.96 311.755ZM2151.95 339.357C2135.89 339.173 2121.52 335.158 2108.85 327.312C2096.18 319.466 2086.29 308.792 2079.19 295.29C2072.3 281.57 2068.96 266.241 2069.15 249.302C2069.34 233.023 2072.81 218.102 2079.57 204.538C2086.54 190.977 2096.24 180.198 2108.65 172.2C2121.06 164.201 2135.41 160.296 2151.69 160.482C2168.19 160.672 2182.44 164.575 2194.46 172.194C2206.47 179.592 2215.6 189.817 2221.83 202.87C2228.28 215.924 2231.41 230.811 2231.21 247.53C2231.18 250.83 2230.81 253.686 2230.13 256.098L2097.14 254.573C2097.66 267.34 2100.61 278.154 2106.01 287.017C2111.41 295.879 2118.27 302.558 2126.57 307.054C2135.1 311.552 2143.99 313.854 2153.23 313.96C2174.79 314.207 2191.51 304.279 2203.4 284.174L2227.03 295.995C2219.61 309.551 2209.59 320.217 2196.96 327.993C2184.55 335.771 2169.54 339.559 2151.95 339.357ZM2201.68 232.671C2201.32 225.626 2199.42 218.564 2195.99 211.484C2192.55 204.404 2187 198.4 2179.36 193.472C2171.94 188.547 2162.51 186.018 2151.07 185.887C2137.87 185.736 2126.6 189.897 2117.26 198.37C2108.15 206.626 2102.08 217.667 2099.06 231.493L2201.68 232.671ZM2264.97 167.062L2291.7 167.369L2291.38 194.427L2292.7 194.442C2296.11 185.24 2302.58 177.724 2312.1 171.893C2321.63 165.842 2331.57 162.876 2341.91 162.994C2349.61 163.083 2356.19 164.258 2361.67 166.521L2361.32 196.879C2354.32 193.279 2346.42 191.428 2337.62 191.327C2329.48 191.234 2321.98 193.458 2315.11 197.999C2308.23 202.541 2302.66 208.747 2298.39 216.619C2294.34 224.273 2292.27 232.609 2292.16 241.629L2291.08 335.673L2263.04 335.351L2264.97 167.062ZM2525.03 343.636C2506.55 343.424 2489.67 337.621 2474.4 326.225C2459.13 314.829 2448.75 298.979 2443.27 278.674L2470.12 268.092C2473.7 282.214 2480.5 293.842 2490.51 302.978C2500.53 312.113 2512.36 316.759 2525.99 316.916C2539.63 317.072 2551.22 313.575 2560.77 306.424C2570.31 299.053 2575.16 288.988 2575.3 276.229C2575.43 265.229 2571.46 256.163 2563.41 249.03C2555.57 241.68 2542.56 234.82 2524.37 228.451L2509.58 223.001C2492.93 216.87 2479.38 208.904 2468.93 199.103C2458.48 189.303 2453.36 175.823 2453.55 158.664C2453.68 147.445 2456.88 137.141 2463.15 127.752C2469.42 118.144 2478.09 110.543 2489.15 104.949C2500.22 99.3557 2512.57 96.6372 2526.21 96.7937C2539.85 96.9501 2551.7 99.6162 2561.76 104.792C2571.82 109.968 2579.78 116.219 2585.64 123.547C2591.71 130.877 2595.92 138.076 2598.26 145.143L2571.73 156.06C2569.63 147.895 2564.65 140.467 2556.81 133.777C2549.18 127.089 2538.99 123.672 2526.23 123.526C2514.13 123.387 2503.75 126.678 2495.1 133.399C2486.44 140.12 2482.05 148.651 2481.93 158.99C2481.83 168.229 2485.37 175.86 2492.56 181.883C2499.75 187.686 2510.69 193.202 2525.37 198.431L2540.82 203.888C2560.76 211.377 2576.27 220.686 2587.36 231.814C2598.46 242.722 2603.9 257.525 2603.69 276.224C2603.51 291.403 2599.41 304.117 2591.37 314.365C2583.55 324.616 2573.67 332.094 2561.74 336.797C2549.8 341.5 2537.57 343.78 2525.03 343.636ZM2694.72 342.943C2687.9 342.864 2681.53 341.691 2675.62 339.423C2669.92 337.158 2665.12 334.132 2661.2 330.347C2656.85 326.117 2653.6 321.24 2651.47 315.715C2649.33 310.19 2648.31 303.468 2648.4 295.548L2649.53 196.885L2620.16 196.548L2620.45 171.139L2649.82 171.476L2650.37 123.959L2678.42 124.281L2677.87 171.798L2718.79 172.267L2718.5 197.676L2677.58 197.206L2676.53 288.94C2676.42 298.18 2678.1 305.019 2681.57 309.46C2685.7 314.347 2691.72 316.836 2699.64 316.927C2706.02 317 2712.2 315.201 2718.18 311.53L2717.87 338.918C2714.55 340.42 2711.13 341.481 2707.6 342.1C2704.29 342.722 2700 343.003 2694.72 342.943ZM2811.9 346.927C2791.66 346.695 2776.22 340.577 2765.58 328.574C2755.15 316.574 2750.07 299.904 2750.31 278.566L2751.52 172.643L2779.57 172.965L2778.41 274.598C2778.22 290.657 2781.72 302.468 2788.89 310.03C2796.07 317.593 2805.81 321.445 2818.13 321.587C2827.59 321.695 2835.98 319.261 2843.3 314.285C2850.83 309.311 2856.63 302.777 2860.68 294.683C2864.96 286.591 2867.14 278.036 2867.25 269.016L2868.34 173.983L2896.39 174.304L2894.46 342.593L2867.73 342.287L2868.01 317.868L2866.69 317.853C2861.97 326.16 2854.52 333.115 2844.34 338.718C2834.15 344.322 2823.34 347.058 2811.9 346.927ZM3005.49 349.147C2990.53 348.976 2976.93 344.969 2964.7 337.129C2952.69 329.29 2943.24 318.621 2936.36 305.121C2929.47 291.402 2926.13 275.962 2926.33 258.803C2926.52 241.864 2930.22 226.616 2937.41 213.057C2944.61 199.499 2954.3 188.94 2966.49 181.379C2978.9 173.821 2992.58 170.127 3007.54 170.299C3020.52 170.448 3032.03 173.55 3042.08 179.606C3052.14 185.441 3059.75 192.679 3064.94 201.319L3066.26 201.334L3065.2 177.891L3066 108.265L3094.05 108.587L3091.34 344.852L3064.61 344.545L3064.9 319.797L3063.58 319.782C3058.2 328.08 3050.42 335.142 3040.23 340.965C3030.05 346.569 3018.47 349.296 3005.49 349.147ZM3009.08 323.777C3018.98 323.89 3028.14 321.355 3036.56 316.171C3045.2 310.99 3052.1 303.589 3057.27 293.968C3062.66 284.349 3065.43 273.16 3065.58 260.401C3065.72 247.641 3063.21 236.392 3058.04 226.652C3053.1 216.915 3046.36 209.357 3037.84 203.979C3029.54 198.603 3020.45 195.859 3010.55 195.745C3000.87 195.634 2991.71 198.169 2983.07 203.35C2974.43 208.532 2967.41 216.042 2962.02 225.881C2956.85 235.502 2954.19 246.582 2954.05 259.121C2953.9 271.66 2956.3 282.909 2961.25 292.866C2966.42 302.606 2973.26 310.165 2981.78 315.543C2990.3 320.921 2999.4 323.666 3009.08 323.777ZM3206.01 351.447C3189.95 351.263 3175.58 347.248 3162.91 339.402C3150.24 331.556 3140.35 320.882 3133.25 307.38C3126.37 293.66 3123.02 278.331 3123.21 261.392C3123.4 245.113 3126.87 230.192 3133.63 216.628C3140.61 203.067 3150.3 192.288 3162.71 184.29C3175.12 176.291 3189.47 172.386 3205.75 172.572C3222.25 172.762 3236.5 176.665 3248.52 184.284C3260.53 191.682 3269.66 201.907 3275.89 214.96C3282.34 228.014 3285.47 242.901 3285.28 259.62C3285.24 262.92 3284.88 265.776 3284.19 268.188L3151.21 266.663C3151.72 279.43 3154.68 290.244 3160.07 299.107C3165.47 307.969 3172.33 314.648 3180.64 319.144C3189.17 323.642 3198.05 325.944 3207.29 326.05C3228.85 326.297 3245.57 316.369 3257.46 296.264L3281.09 308.085C3273.67 321.641 3263.65 332.307 3251.02 340.083C3238.61 347.861 3223.61 351.649 3206.01 351.447ZM3255.74 244.761C3255.39 237.716 3253.49 230.654 3250.05 223.574C3246.61 216.494 3241.07 210.49 3233.42 205.562C3226 200.636 3216.57 198.108 3205.13 197.977C3191.93 197.826 3180.66 201.987 3171.32 210.46C3162.21 218.716 3156.14 229.757 3153.12 243.583L3255.74 244.761ZM3319.03 179.152L3345.76 179.459L3345.47 204.207L3346.79 204.222C3351.51 195.916 3358.96 188.961 3369.14 183.357C3379.33 177.534 3390.14 174.687 3401.58 174.819C3421.82 175.051 3437.15 181.167 3447.58 193.167C3458.22 204.95 3463.43 220.961 3463.2 241.2L3461.96 349.103L3433.91 348.781L3435.1 245.168C3435.28 229.549 3431.67 218.177 3424.27 211.051C3416.87 203.926 3406.68 200.289 3393.7 200.14C3384.68 200.036 3376.51 202.473 3369.2 207.449C3362.1 212.428 3356.52 219.075 3352.47 227.389C3348.41 235.483 3346.34 244.04 3346.23 253.059L3345.15 347.763L3317.1 347.441L3319.03 179.152ZM3558.33 352.848C3551.51 352.77 3545.15 351.597 3539.23 349.329C3533.54 347.063 3528.73 344.038 3524.82 340.253C3520.46 336.023 3517.22 331.145 3515.08 325.62C3512.95 320.095 3511.92 313.373 3512.01 305.454L3513.15 206.79L3483.78 206.453L3484.07 181.045L3513.44 181.382L3513.98 133.865L3542.03 134.187L3541.49 181.704L3582.4 182.173L3582.11 207.581L3541.19 207.112L3540.14 298.846C3540.04 308.085 3541.72 314.925 3545.19 319.365C3549.31 324.253 3555.33 326.742 3563.25 326.833C3569.63 326.906 3575.81 325.107 3581.8 321.435L3581.48 348.823C3578.16 350.325 3574.74 351.386 3571.21 352.006C3567.91 352.628 3563.61 352.909 3558.33 352.848ZM3801.2 358.274C3778.32 358.012 3757.6 352.383 3739.02 341.39C3720.45 330.396 3705.88 315.488 3695.31 296.665C3684.97 277.626 3679.93 256.556 3680.19 233.458C3680.46 210.359 3685.98 189.521 3696.75 170.944C3707.75 152.149 3722.66 137.469 3741.48 126.904C3760.3 116.339 3781.15 111.188 3804.03 111.45C3821.63 111.652 3837.65 115.246 3852.09 122.232C3866.75 129.001 3879.41 138.606 3890.04 151.049L3869.69 170.287C3860.8 159.404 3850.99 151.371 3840.27 146.188C3829.76 141.007 3817.58 138.337 3803.73 138.178C3786.57 137.982 3770.79 141.871 3756.4 149.846C3742.01 157.602 3730.44 168.8 3721.69 183.441C3713.16 197.864 3708.79 214.645 3708.57 233.783C3708.35 252.922 3712.34 269.909 3720.53 284.744C3728.94 299.361 3740.25 310.822 3754.46 319.125C3768.66 327.209 3784.35 331.349 3801.51 331.546C3830.11 331.874 3854.55 320.383 3874.84 297.074L3895.07 317.108C3883.92 329.961 3870.27 340.145 3854.13 347.66C3837.98 354.956 3820.34 358.493 3801.2 358.274ZM3928.85 118.162L3956.9 118.484L3954.19 354.748L3926.14 354.427L3928.85 118.162ZM4056.73 361.205C4036.49 360.973 4021.05 354.855 4010.41 342.852C3999.98 330.852 3994.9 314.183 3995.14 292.844L3996.36 186.921L4024.4 187.243L4023.24 288.876C4023.05 304.935 4026.55 316.746 4033.72 324.309C4040.9 331.871 4050.64 335.723 4062.96 335.865C4072.42 335.973 4080.81 333.539 4088.13 328.563C4095.66 323.589 4101.46 317.055 4105.51 308.961C4109.79 300.869 4111.97 292.314 4112.08 283.295L4113.17 188.261L4141.22 188.582L4139.29 356.871L4112.56 356.565L4112.84 332.146L4111.52 332.131C4106.8 340.438 4099.35 347.393 4089.17 352.996C4078.98 358.6 4068.17 361.336 4056.73 361.205ZM4266.12 363.607C4253.36 363.46 4241.84 360.468 4231.57 354.63C4221.52 348.574 4214.01 341.337 4209.05 332.92L4207.73 332.905L4207.44 357.653L4180.71 357.347L4183.42 121.082L4211.47 121.404L4210.67 191.029L4209.08 214.443L4210.4 214.458C4215.56 205.936 4223.23 198.874 4233.42 193.27C4243.83 187.449 4255.41 184.612 4268.17 184.758C4283.13 184.93 4296.72 188.936 4308.95 196.777C4321.18 204.618 4330.74 215.398 4337.62 229.118C4344.51 242.838 4347.85 258.167 4347.66 275.106C4347.46 292.265 4343.76 307.623 4336.57 321.182C4329.37 334.52 4319.57 344.968 4307.17 352.527C4294.76 360.085 4281.08 363.778 4266.12 363.607ZM4263.11 338.16C4272.79 338.271 4281.95 335.736 4290.59 330.555C4299.23 325.374 4306.13 317.972 4311.3 308.351C4316.7 298.512 4319.47 287.323 4319.61 274.784C4319.75 262.245 4317.24 251.105 4312.07 241.366C4307.13 231.408 4300.39 223.74 4291.87 218.362C4283.36 212.984 4274.26 210.24 4264.58 210.129C4254.9 210.018 4245.74 212.553 4237.1 217.734C4228.46 222.915 4221.55 230.317 4216.38 239.938C4211.21 249.559 4208.55 260.75 4208.41 273.509C4208.26 286.268 4210.66 297.516 4215.61 307.254C4220.56 316.991 4227.29 324.549 4235.81 329.927C4244.33 335.305 4253.43 338.049 4263.11 338.16ZM4436.28 365.558C4418.24 365.351 4403.22 360.999 4391.22 352.501C4379.22 343.782 4370.76 332.795 4365.85 319.537L4391.06 308.606C4395.12 318.773 4401.19 326.653 4409.27 332.246C4417.57 337.842 4426.66 340.696 4436.56 340.81C4447.12 340.931 4456.17 338.945 4463.69 334.851C4471.22 330.537 4475.03 324.42 4475.13 316.501C4475.21 309.461 4472.3 303.817 4466.41 299.569C4460.52 295.102 4451.21 291.255 4438.49 288.028L4418.09 282.514C4404.71 279.06 4393.78 273.325 4385.29 265.307C4376.8 257.289 4372.63 247.01 4372.77 234.471C4372.88 224.792 4375.84 216.355 4381.64 209.161C4387.67 201.75 4395.54 196.12 4405.27 192.271C4414.99 188.422 4425.46 186.562 4436.68 186.691C4451.42 186.86 4464.47 190.2 4475.84 196.711C4487.43 203.224 4495.57 212.228 4500.28 223.723L4475.73 234.662C4468.43 219.617 4455.2 211.985 4436.06 211.766C4426.82 211.66 4418.66 213.766 4411.57 218.085C4404.7 222.187 4401.23 227.537 4401.16 234.137C4401.08 240.296 4403.45 245.384 4408.24 249.399C4413.04 253.194 4420.26 256.357 4429.91 258.888L4454.26 265.438C4470.71 269.807 4483.07 276.219 4491.33 284.674C4499.6 292.91 4503.66 302.967 4503.53 314.846C4503.41 325.186 4500.33 334.281 4494.3 342.132C4488.27 349.764 4480.18 355.611 4470.01 359.675C4459.84 363.738 4448.6 365.7 4436.28 365.558ZM882.098 576.729C871.565 576.608 862.399 573.636 854.598 567.813C846.799 561.856 841.36 553.593 838.281 543.024L854.356 536.608C858.975 552.395 868.285 560.369 882.284 560.53C890.15 560.62 896.447 557.959 901.176 552.546C906.039 547.135 908.521 539.963 908.624 531.03L909.775 430.637L926.774 430.831L925.639 529.825C925.524 539.824 923.559 548.402 919.743 555.559C916.062 562.584 910.934 567.926 904.358 571.584C897.917 575.11 890.497 576.825 882.098 576.729ZM956.427 431.172L977.225 431.41L1047.71 546.226L1048.51 546.235L1048.03 518.628L1049.02 432.234L1066.02 432.429L1064.38 575.619L1046.78 575.417L972.953 455.163L972.153 455.154L972.636 482.761L971.583 574.555L954.784 574.362L956.427 431.172ZM1098.02 432.796L1180.81 433.745L1180.63 449.944L1114.63 449.187L1114.09 496.584L1173.68 497.268L1173.5 513.267L1113.9 512.583L1113.36 559.98L1179.36 560.737L1179.17 576.936L1096.38 575.986L1098.02 432.796ZM1269.78 581.175C1255.91 581.016 1243.35 577.605 1232.09 570.942C1220.84 564.28 1212.01 555.244 1205.6 543.837C1199.33 532.298 1196.28 519.528 1196.44 505.529C1196.6 491.53 1199.95 478.901 1206.48 467.642C1213.14 456.251 1222.18 447.354 1233.58 440.951C1244.99 434.548 1257.63 431.426 1271.49 431.585C1282.16 431.708 1291.87 433.886 1300.62 438.12C1309.51 442.222 1317.18 448.044 1323.62 455.585L1311.29 467.244C1305.9 460.648 1299.95 455.78 1293.45 452.638C1287.09 449.499 1279.71 447.88 1271.31 447.784C1260.91 447.665 1251.35 450.022 1242.63 454.856C1233.9 459.556 1226.89 466.343 1221.59 475.216C1216.42 483.957 1213.77 494.127 1213.64 505.727C1213.51 517.326 1215.92 527.621 1220.89 536.612C1225.99 545.471 1232.84 552.416 1241.45 557.449C1250.06 562.348 1259.57 564.857 1269.96 564.976C1287.3 565.175 1302.11 558.211 1314.41 544.085L1326.67 556.226C1319.91 564.016 1311.64 570.188 1301.85 574.743C1292.07 579.164 1281.38 581.308 1269.78 581.175Z" fill="black" fill-opacity="0.7"/>
</svg>